<svg width="460" height="78" viewBox="0 0 460 78" fill="none" xmlns="http://www.w3.org/2000/svg">
<path d="M44.3 21.6168C40.7 18.75 36.2 16.8388 31.4 16.8388C27.8 16.8388 23.1 18.8456 23.1 22.8591C23.1 27.0637 28.4 28.6882 31.7 29.6438L36.7 31.0772C47.1 34.0396 55.2 39.0087 55.2 50.5714C55.2 57.6429 53.4 65.001 47.5 69.779C41.6 74.557 33.8 76.4681 26.3 76.4681C16.9 76.4681 7.6 73.4102 0 68.3456L8.3 53.3427C13.2 57.4517 18.9 60.7008 25.6 60.7008C30.2 60.7008 35 58.5029 35 53.5338C35 48.278 27.4 46.5579 23.2 45.4112C10.8 42.2577 2.8 39.1998 2.8 25.3436C2.8 10.8185 13.6 1.35811 28.6 1.35811C36.1 1.35811 45.4 3.65154 52 7.28282L44.3 21.6168Z" fill="white"/>
<path d="M91.6 19.0367V30.9817H113.5V46.749H91.6V59.0763H114.8V74.8436H72.2V3.2693H114.8V19.0367H91.6Z" fill="white"/>
<path d="M129.2 3.2693H156.8C177.6 3.2693 194.8 18.9411 194.8 39.0087C194.8 59.0763 177.5 74.7481 156.8 74.7481H129.2V3.2693ZM148.7 58.9807H153.1C164.7 58.9807 174.6 52.8649 174.6 39.0087C174.6 26.2037 165.8 19.0367 153.3 19.0367H148.7V58.9807Z" fill="white"/>
<path d="M286.7 37.6709C286.7 60.7963 269.3 77.1371 245.3 77.1371C221.3 77.1371 203.9 60.7963 203.9 37.6709C203.9 16.0743 223.8 0.88031 245.3 0.88031C266.8 0.88031 286.7 16.0743 286.7 37.6709ZM224.1 37.7664C224.1 50.0936 233.6 59.0763 245.2 59.0763C256.8 59.0763 266.3 50.0936 266.3 37.7664C266.3 27.9237 256.8 18.8456 245.2 18.8456C233.7 18.9411 224.1 27.9237 224.1 37.7664Z" fill="white"/>
<path d="M297 3.2693H316.5L352.1 47.0357H352.3V3.2693H371.8V74.7481H352.3L316.7 30.8861H316.5V74.7481H297V3.2693Z" fill="white"/>
<path d="M407.1 62.3253L401.9 74.7481H381.3L410.1 3.2693H431.3L459.5 74.7481H438.8L433.9 62.3253H407.1ZM420.7 25.3436H420.5L412.5 48.0869H428.7L420.7 25.3436Z" fill="white"/>
</svg>
